PathFileType	4	(X/Y/Z)	C:/Users/beibeiliu/ov580/test_trc/User3\sequence.23_training_dense_left.trc
DataRate	CameraRate	NumFrames	NumMarkers	Units	OrigDataRate	OrigDataStartFrame	OrigNumFrames
120	120	7	19	mm	120	1	92
Frame#	Time	ThumbCMC			ThumbMCP			ThumbIP			ThumbTip			IndexMCP			IndexPIP			IndexTip			MiddleMCP			MiddlePIP			MiddleTip			RingMCP			RingPIP			RingTip			PinkyMCP			PinkyPIP			PinkyTip			BackHand1			BackHand2			BackHand3	
		X0	Y0	Z0	X1	Y1	Z1	X2	Y2	Z2	X3	Y3	Z3	X4	Y4	Z4	X5	Y5	Z5	X6	Y6	Z6	X7	Y7	Z7	X8	Y8	Z8	X9	Y9	Z9	X10	Y10	Z10	X11	Y11	Z11	X12	Y12	Z12	X13	Y13	Z13	X14	Y14	Z14	X15	Y15	Z15	X16	Y16	Z16	X17	Y17	Z17	X18	Y18	Z18	
0	0	-58.3277	1.5591	59.0875	-43.6337	-8.70139	31.8188	-32.2885	-15.8768	3.2074	-35.5793	-28.3067	-22.8642	-87.2058	13.1249	-14.5442	-80.1754	5.3489	-42.5644	-70.0959	-17.3013	-65.2545	-107.53	5.97611	-20.1741	-104.549	-6.70157	-49.6726	-92.7883	-35.9697	-66.9638	-118.93	-10.6115	-14.8906	-115.234	-27.7585	-35.9382	-100.584	-56.4719	-38.5695	-135.282	-26.7655	0.311799	-129.527	-42.29	-16.8234	-107.942	-62.2963	-19.8578	-125.122	6.16945	38.7965	-124.005	3.21539	74.2277	-95.5075	18.9501	53.6786	
1	0.00833333	-60.834	0.0642351	57.2646	-44.0219	-8.29397	30.8211	-38.5252	-17.4558	4.31248	-36.5981	-29.5002	-21.1123	-88.4869	11.0306	-15.8677	-82.2749	1.05417	-45.9522	-72.5054	-20.5731	-65.0625	-107.289	4.26391	-22.7966	-104.211	-6.50626	-47.9436	-92.5819	-38.0742	-66.4863	-123.412	-13.6353	-12.8312	-114.031	-29.5927	-35.5543	-96.912	-61.8618	-37.8582	-133.561	-26.5143	4.34942	-126.894	-47.0734	-19.176	-110.803	-65.9458	-20.8194	-126.973	2.38609	42.3243	-124.634	3.75165	71.3264	-95.3815	17.5556	51.5789	
2	0.0166667	-60.748	-1.17136	59.3049	-45.4658	-9.42968	33.9235	-36.007	-18.3718	0.858727	-37.0987	-29.3648	-16.3433	-84.2928	11.281	-19.732	-83.0351	1.06366	-43.6283	-70.7178	-16.2697	-63.4617	-109.514	3.14887	-19.1535	-104.176	-8.44685	-48.3419	-90.6555	-35.8757	-66.4843	-119.126	-11.4517	-10.873	-112.756	-33.6861	-36.9675	-99.0605	-61.7134	-38.3377	-135.127	-27.0348	3.03859	-128.702	-45.908	-18.0628	-110.651	-64.5447	-20.2586	-127.863	2.05429	42.0149	-123.385	2.05241	70.9802	-96.4328	15.8232	54.4636	
3	0.025	-58.2404	1.32108	54.2089	-46.8482	-9.03593	30.728	-37.5451	-17.6694	2.82268	-36.2131	-28.7757	-16.0997	-86.5768	11.075	-18.7976	-79.3268	2.63925	-47.4516	-76.6126	-16.0097	-62.6229	-107.177	5.36384	-18.0809	-104.445	-8.27127	-50.0892	-94.0177	-35.6086	-67.3999	-119.251	-9.54192	-13.4438	-115.935	-29.4706	-37.5201	-103.271	-52.8939	-43.6332	-131.339	-23.0575	4.99191	-128.378	-38.2739	-19.9144	-115.099	-61.316	-27.0776	-125.711	3.36583	38.882	-126.777	2.45666	70.0061	-95.0945	18.2096	51.1541	
4	0.0333333	-62.5403	0.208279	57.194	-46.993	-7.6625	27.5055	-36.1507	-16.0961	1.99483	-36.6845	-27.3609	-20.6561	-84.8551	16.2858	-16.6024	-82.7969	9.06131	-44.1754	-75.2125	-8.29391	-65.8258	-107.56	10.9292	-24.2722	-104.548	-2.70151	-52.8281	-97.8618	-24.8592	-71.6155	-125.626	-5.91415	-12.3609	-119.839	-19.5852	-41.48	-110.708	-46.7572	-51.4551	-138.638	-19.9382	2.45048	-133.381	-28.0805	-20.0185	-124.737	-50.9729	-34.6715	-127.6	7.58982	39.4558	-122.391	8.31357	67.7968	-95.5246	18.9196	50.4096	
5	0.0416667	-65.3517	3.87154	48.7367	-51.1379	-4.00908	24.086	-43.3482	-11.984	-5.6289	-40.2909	-22.7589	-26.5476	-87.1728	22.105	-18.9076	-89.2584	13.7911	-50.7168	-81.8671	1.53	-70.747	-115.83	17.0336	-25.1188	-113.371	11.2007	-53.7794	-112.153	-10.1715	-78.9006	-132.409	4.55833	-14.1035	-132.898	-4.85439	-44.2354	-128.985	-24.9787	-61.245	-143.526	-8.11956	1.83904	-144.852	-13.6892	-20.3668	-142.019	-33.5482	-40.5865	-126.666	14.4721	40.1414	-126.142	12.3698	67.1973	-94.2083	24.261	48.012	
6	0.05	-66.8656	7.23633	42.275	-52.4501	-1.01036	16.8647	-46.622	-10.4074	-6.95772	-44.2842	-18.4058	-30.0483	-95.6504	26.3936	-29.362	-90.3129	23.9158	-52.5414	-91.056	14.0093	-78.0487	-123.016	26.5628	-29.5749	-121.566	25.628	-55.1247	-124.854	13.12	-88.8387	-135.545	16.166	-15.8508	-143.889	13.08	-44.3314	-145.25	-0.216027	-73.2513	-154.62	1.78492	-0.661921	-160.322	-1.79851	-26.5844	-163.993	-12.343	-46.8213	-128.727	20.196	35.3169	-130.061	19.3984	64.2797	-99.975	29.0793	43.8797	
